<svg width="16" height="16" viewBox="0 0 16 16" fill="none" xmlns="http://www.w3.org/2000/svg">
<path d="M8.30052 0.8V6.70005L7.70052 6.70005V0.8C7.70052 0.634315 7.83484 0.5 8.00052 0.5C8.16621 0.5 8.30052 0.634315 8.30052 0.8ZM7.70052 7.70005L8.30052 7.70005V8.30005L7.70052 8.30005V7.70005ZM9.30052 8.30005V7.70005H15.2C15.3657 7.70005 15.5 7.83436 15.5 8.00005C15.5 8.16573 15.3657 8.30005 15.2 8.30005H9.30052ZM7.70052 9.30005L8.30052 9.30005V15.2C8.30052 15.3657 8.16621 15.5 8.00052 15.5C7.83484 15.5 7.70052 15.3657 7.70052 15.2V9.30005ZM6.70052 7.70005V8.30005H0.8C0.634315 8.30005 0.5 8.16573 0.5 8.00005C0.5 7.83436 0.634314 7.70005 0.8 7.70005H6.70052Z" stroke="#200E32"/>
</svg>
