<svg width="20" height="23" viewBox="0 0 20 23" fill="none" xmlns="http://www.w3.org/2000/svg">
<path d="M17.2634 3.43584L17.2634 3.43581C15.9262 1.81382 13.533 1.73268 12.0843 3.18139L3.40805 11.8576C1.54029 13.7253 1.26071 16.737 2.90887 18.7295C4.83443 21.0407 8.24707 21.1607 10.3165 19.0913L17.9179 11.4899C18.0125 11.3952 18.0125 11.231 17.9179 11.1363C17.8232 11.0417 17.659 11.0417 17.5643 11.1363L10.0831 18.6175C8.44257 20.2581 5.75594 20.5417 3.92453 19.0317L17.2634 3.43584ZM17.2634 3.43584C18.412 4.82883 18.2289 6.93626 16.9138 8.25134L9.60938 15.5558C8.777 16.3881 7.403 16.3373 6.6376 15.4018C5.99594 14.6175 6.1084 13.3999 6.87995 12.6283L12.9681 6.54014C13.0628 6.44549 13.227 6.44549 13.3217 6.54014C13.4163 6.63479 13.4163 6.79904 13.3217 6.8937L7.13451 13.0809C6.55034 13.6651 6.55034 14.618 7.13451 15.2022C7.71868 15.7864 8.67166 15.7864 9.25583 15.2022L16.6804 7.77758C17.927 6.53107 17.8506 4.46853 16.4526 3.32474C15.2145 2.31177 13.4199 2.55286 12.3388 3.63393L3.59897 12.3738C1.73802 14.2347 1.84865 17.3215 3.92435 19.0316L17.2634 3.43584Z" stroke="#200E32"/>
</svg>
