<svg width="22" height="22" viewBox="0 0 22 22" fill="none" xmlns="http://www.w3.org/2000/svg">
<mask id="path-1-inside-1" fill="white">
<path fill-rule="evenodd" clip-rule="evenodd" d="M6.69524 12.3909C6.05048 12.3909 5.52667 11.8671 5.52667 11.2223C5.52667 10.5794 6.05048 10.0556 6.69524 10.0556C7.34001 10.0556 7.86382 10.5794 7.86382 11.2223C7.86382 11.8671 7.34001 12.3909 6.69524 12.3909ZM11.2381 12.3909C10.5933 12.3909 10.0695 11.8671 10.0695 11.2223C10.0695 10.5794 10.5933 10.0556 11.2381 10.0556C11.8829 10.0556 12.4067 10.5794 12.4067 11.2223C12.4067 11.8671 11.8829 12.3909 11.2381 12.3909ZM14.6125 11.2223C14.6125 11.8671 15.1363 12.3909 15.7811 12.3909C16.4258 12.3909 16.9496 11.8671 16.9496 11.2223C16.9496 10.5794 16.4258 10.0556 15.7811 10.0556C15.1363 10.0556 14.6125 10.5794 14.6125 11.2223Z"/>
</mask>
<path d="M1.02667 11.2223C1.02667 14.3523 3.5652 16.8909 6.69524 16.8909V7.89087C8.53576 7.89087 10.0267 9.38178 10.0267 11.2223H1.02667ZM6.69524 5.55563C3.56998 5.55563 1.02667 8.08938 1.02667 11.2223H10.0267C10.0267 13.0695 8.53098 14.5556 6.69524 14.5556V5.55563ZM12.3638 11.2223C12.3638 8.08938 9.82051 5.55563 6.69524 5.55563V14.5556C4.8595 14.5556 3.36382 13.0695 3.36382 11.2223H12.3638ZM6.69524 16.8909C9.82529 16.8909 12.3638 14.3523 12.3638 11.2223H3.36382C3.36382 9.38178 4.85472 7.89087 6.69524 7.89087V16.8909ZM5.56953 11.2223C5.56953 14.3523 8.10806 16.8909 11.2381 16.8909V7.89087C13.0786 7.89087 14.5695 9.38178 14.5695 11.2223H5.56953ZM11.2381 5.55563C8.11284 5.55563 5.56953 8.08939 5.56953 11.2223H14.5695C14.5695 13.0695 13.0738 14.5556 11.2381 14.5556V5.55563ZM16.9067 11.2223C16.9067 8.08939 14.3634 5.55563 11.2381 5.55563V14.5556C9.40236 14.5556 7.90667 13.0695 7.90667 11.2223H16.9067ZM11.2381 16.8909C14.3681 16.8909 16.9067 14.3523 16.9067 11.2223H7.90667C7.90667 9.38178 9.39758 7.89087 11.2381 7.89087V16.8909ZM15.7811 7.89087C17.6216 7.89087 19.1125 9.38178 19.1125 11.2223H10.1125C10.1125 14.3523 12.651 16.8909 15.7811 16.8909V7.89087ZM12.4496 11.2223C12.4496 9.38178 13.9405 7.89087 15.7811 7.89087V16.8909C18.9111 16.8909 21.4496 14.3523 21.4496 11.2223H12.4496ZM15.7811 14.5556C13.9453 14.5556 12.4496 13.0695 12.4496 11.2223H21.4496C21.4496 8.08939 18.9063 5.55563 15.7811 5.55563V14.5556ZM19.1125 11.2223C19.1125 13.0695 17.6168 14.5556 15.7811 14.5556V5.55563C12.6558 5.55563 10.1125 8.08939 10.1125 11.2223H19.1125Z" fill="#200E32" mask="url(#path-1-inside-1)"/>
<path fill-rule="evenodd" clip-rule="evenodd" d="M11.02 1C5.21 1 1 5.74612 1 11.015C1 12.6975 1.49 14.4291 2.35 16.0115C2.51 16.2729 2.53 16.6024 2.42 16.9139L1.75 19.1572C1.6 19.698 2.06 20.0976 2.57 19.9374L4.59 19.3375C5.14 19.1572 5.57 19.3866 6.08 19.698C7.54 20.5583 9.36 21 11 21C15.96 21 21 17.1642 21 10.985C21 5.65598 16.7 1 11.02 1Z" stroke="#200E32" stroke-width="1.5" stroke-linecap="round" stroke-linejoin="round"/>
</svg>
