<svg width="16" height="12" viewBox="0 0 16 12" fill="none" xmlns="http://www.w3.org/2000/svg">
<path d="M4.94966 10.4339L4.59591 10.0798L1.2596 6.73983L1.25742 6.73765L1.25743 6.73764C1.17511 6.65422 1.06298 6.60736 0.946083 6.60736C0.82919 6.60736 0.717053 6.65422 0.63474 6.73764L0.632574 6.73984L0.632567 6.73983C0.455811 6.91678 0.455811 7.19215 0.632567 7.3691L4.62661 11.3675C4.80306 11.5442 5.08672 11.5442 5.26317 11.3675L5.26334 11.3673L15.3674 1.26173L4.94966 10.4339ZM4.94966 10.4339L5.3034 10.0798M4.94966 10.4339L5.3034 10.0798M5.3034 10.0798L14.7404 0.632468L14.7404 0.632475L14.7426 0.63028C14.8249 0.546853 14.937 0.5 15.0539 0.5C15.1708 0.5 15.2829 0.546854 15.3653 0.63028L15.3653 0.630286M5.3034 10.0798L15.3653 0.630286M15.3653 0.630286L15.3674 0.632468M15.3653 0.630286L15.3674 0.632468M15.3674 0.632468C15.5441 0.809362 15.5442 1.08461 15.3676 1.26157L15.3674 0.632468ZM1.61335 6.38647C1.43714 6.20788 1.19683 6.10736 0.946083 6.10736C0.695335 6.10736 0.455029 6.20788 0.27882 6.38647C-0.0929401 6.75864 -0.0929401 7.35029 0.27882 7.72246L4.27286 11.7209C4.64462 12.093 5.24516 12.093 5.61692 11.7209L1.61335 6.38647Z" stroke="#200E32"/>
</svg>
