<svg width="18" height="20" viewBox="0 0 18 20" fill="none" xmlns="http://www.w3.org/2000/svg">
<path d="M11.8453 3.11765C11.3691 3.11765 10.959 2.78193 10.865 2.31516L10.7707 1.84706C10.6747 1.36 10.2373 1 9.72533 1H2.06667C1.48 1 1 1.47647 1 2.05882V17.9412C1 18.5235 1.48 19 2.06667 19C2.65333 19 3.13333 18.5235 3.13333 17.9412V12.5882C3.13333 12.036 3.58105 11.5882 4.13333 11.5882H8.28805C8.7642 11.5882 9.17431 11.924 9.26835 12.3907L9.36267 12.8588C9.45867 13.3565 9.896 13.7059 10.408 13.7059H15.9333C16.52 13.7059 17 13.2294 17 12.6471V4.17647C17 3.59412 16.52 3.11765 15.9333 3.11765H11.8453Z" stroke="#200E32" stroke-width="1.45"/>
</svg>
