<svg width="16" height="15" viewBox="0 0 16 15" fill="none" xmlns="http://www.w3.org/2000/svg">
<path d="M15 1.16667H0.833332C0.649238 1.16667 0.5 1.01743 0.5 0.833333C0.5 0.649238 0.649238 0.5 0.833333 0.5H15C15.1841 0.5 15.3333 0.649237 15.3333 0.833333C15.3333 1.01743 15.1841 1.16667 15 1.16667Z" stroke="#200E32" stroke-linecap="round" stroke-linejoin="round"/>
<path d="M15 7.83317H0.833332C0.649238 7.83317 0.5 7.68393 0.5 7.49984C0.5 7.31574 0.649238 7.1665 0.833333 7.1665H15C15.1841 7.1665 15.3333 7.31574 15.3333 7.49984C15.3333 7.68393 15.1841 7.83317 15 7.83317Z" stroke="#200E32" stroke-linecap="round" stroke-linejoin="round"/>
<path d="M15 14.5002H0.833332C0.649238 14.5002 0.5 14.3509 0.5 14.1668C0.5 13.9827 0.649238 13.8335 0.833333 13.8335H15C15.1841 13.8335 15.3333 13.9827 15.3333 14.1668C15.3333 14.3509 15.1841 14.5002 15 14.5002Z" stroke="#200E32" stroke-linecap="round" stroke-linejoin="round"/>
</svg>
